# xmcd CD database file
#
# Track frame offsets:
#	150
#	16004
#	36756
#	48189
#	67116
#	79214
#	89161
#	98381
#	110948
#	127095
#	137915
#	146979
#	155525
#	164804
#	182028
#	197899
#	212054
#	221457
#	233245
#	246031
#	259240
#	271297
#	281856
#	295098
#	311324
#	322077
#
# Disc length: 4427 seconds
#
# Revision: 0
# Processed by: cddbd v1.4PL0 Copyright (c) Steve Scherf et al.
# Submitted via: CDex 1.40Beta8
#
DISCID=9a11491a
DTITLE=Trampske - 80let trampingu (3)
DYEAR=1998
DGENRE=Country
TTITLE0=Zeme tri slunci
TTITLE1=Ascallona
TTITLE2=Pulnocni vlak
TTITLE3=Pampelisky
TTITLE4=Horici prerie
TTITLE5=Sherif Tobbi
TTITLE6=Svet ticha
TTITLE7=Treseme se v lese
TTITLE8=Paroplavecka
TTITLE9=Jerry z Fort Adamsonu
TTITLE10=Fram
TTITLE11=Prijd na chvili
TTITLE12=Ho ho Watanay
TTITLE13=Poraneny koleno
TTITLE14=Ze vsech chlapu nejstastnejsi chlap
TTITLE15=Niagara
TTITLE16=Ruty suty
TTITLE17=Kacak
TTITLE18=Je na zapad cesta dlouha
TTITLE19=Pisen severu
TTITLE20=Quadalcanal
TTITLE21=Vobuj si boty
TTITLE22=Jeste spi chata
TTITLE23=Slaboch Ben
TTITLE24=Rychle sipy
TTITLE25=Vlajka
EXTD=YEAR: 1998 ID3G: 2
EXTT0=
EXTT1=
EXTT2=
EXTT3=
EXTT4=
EXTT5=
EXTT6=
EXTT7=
EXTT8=
EXTT9=
EXTT10=
EXTT11=
EXTT12=
EXTT13=
EXTT14=
EXTT15=
EXTT16=
EXTT17=
EXTT18=
EXTT19=
EXTT20=
EXTT21=
EXTT22=
EXTT23=
EXTT24=
EXTT25=
PLAYORDER=
